<svg width="76" height="76" viewBox="0 0 76 76" fill="none" xmlns="http://www.w3.org/2000/svg">
<g clip-path="url(#clip0_1096_47)">
<path opacity="0.95" fill-rule="evenodd" clip-rule="evenodd" d="M43.4192 2.59754C45.8132 2.52076 47.4214 3.60929 48.2434 5.86317C49.2699 16.7089 50.3583 27.5448 51.509 38.371C51.5781 38.5834 51.7019 38.7565 51.8801 38.8905C57.1986 40.8928 59.5984 44.7274 59.0793 50.3944C57.9768 54.0648 55.5027 55.9945 51.6575 56.1835C46.5773 55.7224 43.3117 53.0506 41.8606 48.1679C41.1815 44.9609 42.0473 42.2642 44.4583 40.078C45.2392 39.7002 45.9566 39.2301 46.6106 38.6679C46.6354 38.2968 46.66 37.9257 46.6848 37.5546C45.6541 25.8954 44.5656 14.2431 43.4192 2.59754ZM47.8723 26.9413C49.1456 27.3811 49.3435 28.0987 48.4661 29.0936C47.2027 29.2658 46.7326 28.7463 47.0559 27.535C47.2786 27.2428 47.5507 27.0449 47.8723 26.9413ZM48.3176 41.4882C51.908 41.3921 54.4563 42.9755 55.9622 46.2382C57.1072 49.3871 56.1919 51.6879 53.2161 53.1405C49.4618 53.6505 46.7651 52.191 45.1262 48.7616C44.1338 46.2759 44.6037 44.1235 46.5364 42.3046C47.1273 41.9837 47.7211 41.7116 48.3176 41.4882Z" fill="#1F2937"/>
<path opacity="0.963" fill-rule="evenodd" clip-rule="evenodd" d="M32.73 5.12109C33.2489 7.0668 32.9767 8.94701 31.9136 10.7617C31.5288 11.2459 31.0587 11.617 30.5034 11.875C29.6045 12.1196 28.6892 12.2433 27.7573 12.2461C24.7409 12.02 21.7228 11.8221 18.7027 11.6523C15.6177 11.5466 12.7231 12.2146 10.0191 13.6562C8.07177 15.0486 6.76056 16.9041 6.08547 19.2227C5.75921 20.3885 5.56129 21.576 5.49172 22.7852C5.38638 23.0038 5.21322 23.1028 4.97218 23.082C4.5383 21.0229 4.21668 18.9448 4.00734 16.8477C3.65663 14.3624 4.00298 11.9874 5.0464 9.72266C6.53088 7.72433 8.53479 6.71 11.0581 6.67969C14.7944 6.67007 18.53 6.74429 22.2652 6.90234C24.8322 6.88235 27.3805 6.65969 29.9097 6.23438C30.9277 6.0196 31.8677 5.64851 32.73 5.12109Z" fill="#1F2937"/>
<path opacity="0.919" fill-rule="evenodd" clip-rule="evenodd" d="M34.3633 11.6523C35.5025 12.2721 36.3684 13.1628 36.9609 14.3242C37.0599 15.3139 37.0599 16.3033 36.9609 17.293C36.7055 18.9412 36.384 20.574 35.9961 22.1914C35.6992 22.1914 35.4023 22.1914 35.1055 22.1914C35.0995 19.0998 34.3079 16.2299 32.7305 13.582C33.3339 12.9795 33.8782 12.3362 34.3633 11.6523Z" fill="#1F2937"/>
<path opacity="0.982" fill-rule="evenodd" clip-rule="evenodd" d="M16.4013 14.3245C19.9469 14.2971 23.4846 14.4456 27.0146 14.7698C28.1295 14.7054 29.2428 14.6806 30.3544 14.6956C31.7073 16.8493 32.4495 19.1996 32.581 21.7464C32.3583 21.7958 32.1357 21.8454 31.913 21.8948C28.4238 21.5532 24.9355 21.2069 21.4482 20.8557C20.7747 20.84 20.3047 21.1369 20.038 21.7464C19.2934 26.2725 21.05 29.3155 25.3075 30.8753C27.5273 31.176 29.7538 31.4234 31.9872 31.6174C31.7125 35.8056 30.2529 39.5412 27.6083 42.8245C24.4735 46.0637 20.7873 46.9295 16.5497 45.4221C14.051 44.111 12.1461 42.2059 10.8349 39.7073C9.2299 36.4341 8.33927 32.9706 8.163 29.3167C7.87796 26.7432 7.87796 24.1703 8.163 21.5979C8.5077 18.0877 10.3632 15.8365 13.7294 14.844C14.6373 14.652 15.528 14.4788 16.4013 14.3245Z" fill="#1F2937"/>
<path opacity="0.945" fill-rule="evenodd" clip-rule="evenodd" d="M75.9258 30.2075C75.9258 31.296 75.9258 32.3846 75.9258 33.4731C74.658 37.7287 71.7882 39.6832 67.3164 39.3364C64.513 38.9082 62.2122 37.597 60.4141 35.4028C59.6875 34.2217 59.0195 33.0094 58.4102 31.7661C58.1746 31.6381 57.9271 31.5391 57.668 31.4692C56.1861 31.3052 54.7017 31.1816 53.2148 31.0981C53.0575 29.5651 52.9091 28.0313 52.7695 26.4966C54.5992 26.6808 56.4299 26.8044 58.2617 26.8677C58.4964 26.7627 58.7191 26.6391 58.9297 26.4966C60.6985 22.8536 63.593 21.3444 67.6133 21.9692C72.0425 23.0586 74.8132 25.8047 75.9258 30.2075ZM65.6836 24.5669C68.8904 24.8292 71.1912 26.4126 72.5859 29.3169C73.4206 31.3192 73.2227 33.1993 71.9922 34.9575C69.8692 36.8584 67.5685 37.0811 65.0898 35.6255C62.2627 33.9048 61.0504 31.4061 61.4531 28.1294C62.1269 26.044 63.537 24.8565 65.6836 24.5669Z" fill="#1F2937"/>
<path opacity="0.959" fill-rule="evenodd" clip-rule="evenodd" d="M22.4902 23.6758C29.32 24.2499 36.1481 24.8437 42.9746 25.457C43.1498 26.987 43.2982 28.5209 43.4199 30.0586C37.4716 29.5921 31.5341 29.0231 25.6074 28.3516C23.476 27.5297 22.4369 25.9711 22.4902 23.6758Z" fill="#1F2937"/>
<path opacity="0.866" fill-rule="evenodd" clip-rule="evenodd" d="M4.37886 25.6055C4.70201 25.6182 4.99888 25.7172 5.26948 25.9023C5.46027 28.2094 5.70766 30.5101 6.01167 32.8047C5.9622 32.9283 5.91271 33.0521 5.86323 33.1758C4.96804 32.5014 4.39902 31.6108 4.1562 30.5039C3.80328 28.8424 3.8775 27.2096 4.37886 25.6055Z" fill="#1F2937"/>
<path opacity="0.968" fill-rule="evenodd" clip-rule="evenodd" d="M14.3242 47.1289C18.2779 49.3051 22.2362 49.3051 26.1992 47.1289C26.7284 49.4445 27.3468 51.7205 28.0547 53.957C25.556 56.1588 23.0572 58.3607 20.5586 60.5625C20.4102 60.6615 20.2617 60.6615 20.1133 60.5625C17.5213 58.4161 14.9732 56.2143 12.4688 53.957C13.2239 51.7291 13.8423 49.4531 14.3242 47.1289Z" fill="#1F2937"/>
<path opacity="0.981" fill-rule="evenodd" clip-rule="evenodd" d="M-0.0742188 73.254C-0.0742188 69.939 -0.0742188 66.6238 -0.0742188 63.3087C1.21655 58.3589 4.4327 55.7365 9.57422 55.4415C9.9401 55.4382 10.2865 55.5125 10.6133 55.6642C13.6373 58.3421 16.705 60.9646 19.8164 63.5314C19.9648 63.5561 20.1133 63.5808 20.2617 63.6056C20.7867 63.541 21.2321 63.3183 21.5977 62.9376C24.4674 60.4636 27.3373 57.9897 30.207 55.5157C34.8527 55.3153 38.1431 57.3192 40.0781 61.5274C40.3698 62.3974 40.5677 63.2881 40.6719 64.1993C40.7461 67.2172 40.7709 70.2354 40.7461 73.254C38.8658 73.254 36.9857 73.254 35.1055 73.254C35.1303 71.2743 35.1055 69.295 35.0312 67.3165C34.5316 66.5581 33.8636 66.3849 33.0273 66.797C32.8491 66.931 32.7253 67.1041 32.6562 67.3165C32.582 69.295 32.5572 71.2743 32.582 73.254C24.3685 73.254 16.1549 73.254 7.94141 73.254C7.96614 71.2743 7.94139 69.295 7.86719 67.3165C7.36752 66.5581 6.69955 66.3849 5.86328 66.797C5.72077 67.0076 5.59706 67.2303 5.49219 67.4649C5.41798 69.394 5.39324 71.3237 5.41797 73.254C3.58724 73.254 1.75651 73.254 -0.0742188 73.254Z" fill="#1F2937"/>
</g>
<defs>
<clipPath id="clip0_1096_47">
<rect width="76" height="76" fill="white"/>
</clipPath>
</defs>
</svg>
